# xmcd
#
# Track frame offsets: 
#        150
#        13030
#        24912
#        40092
#        53952
#        68522
#        83460
#        96275
#        107930
#        122905
#
# Disc length: 1837 seconds
#
# Revision: 2
# Processed by: cddbd v1.5.1PL2 Copyright (c) Steve Scherf et al.
# Submitted via: ExactAudioCopy v0.95a5
#
DISCID=75072b0a
DTITLE=Goodman, Herman, Hyser - The Best Of The Big Bands - Legendary 
DTITLE=Big Bands, The
DYEAR=1900
DGENRE=
TTITLE0=Who Cares - Benny Goodman, Fred Astaire
TTITLE1=The White Cliffs Of Dover - Kay Kyser, Harry Babbitt
TTITLE2=Laura - Woody Herman
TTITLE3=Caldonia - Woody Herman
TTITLE4=Woodchoppers Ball - Woody Herman
TTITLE5=Jingle, Jangle, Jingle - Kay Kyser, Julie Conway, Harry Babbit
TTITLE5=t
TTITLE6=Oh! Look At Me Now! - Benny Goodman, Helen Forrest
TTITLE7=I Thought About You - Benny Goodman, Mildred Bailey
TTITLE8=Four Brothers - Woody Herman
TTITLE9=Perfidia - Benny Goodman, Helen Forrest
EXTD=
EXTT0=
EXTT1=
EXTT2=
EXTT3=
EXTT4=
EXTT5=
EXTT6=
EXTT7=
EXTT8=
EXTT9=
PLAYORDER=
